<?xml version="1.0" encoding="utf-8"?>
<!-- Generator: Adobe Illustrator 19.1.0, SVG Export Plug-In . SVG Version: 6.00 Build 0)  -->
<svg version="1.1" id="Layer_1" xmlns="http://www.w3.org/2000/svg" xmlns:xlink="http://www.w3.org/1999/xlink" x="0px" y="0px"
	 viewBox="-449 451 100 100" style="enable-background:new -449 451 100 100;" xml:space="preserve">
<style type="text/css">
	.st0{fill:#FFFFFF;}
</style>
<circle cx="-399" cy="501" r="35.3"/>
<polygon class="st0" points="-430.5,468.2 -430.9,470.6 -431,470.6 -433.5,471.1 -430.9,471.6 -430.4,474.2 -430,471.6 
	-429.9,471.6 -427.3,471.1 -430,470.6 -430.4,468.1 -430.4,467.9 "/>
<polygon class="st0" points="-429.2,501.4 -429.6,503.8 -429.6,503.8 -432.2,504.3 -429.6,504.8 -429.1,507.5 -428.6,504.8 
	-428.6,504.8 -426,504.3 -428.6,503.8 -429.1,501.3 -429.1,501.2 "/>
<polygon class="st0" points="-431.3,483 -432,487.1 -432.1,487.1 -436.4,487.9 -432,488.7 -431.2,493.2 -430.4,488.7 -430.4,488.7 
	-426.1,487.9 -430.4,487.1 -431.2,482.9 -431.2,482.6 "/>
<polygon class="st0" points="-415,478.6 -415.7,482.7 -415.7,482.7 -420.1,483.5 -415.7,484.3 -414.9,488.8 -414.1,484.3 
	-414.1,484.3 -409.7,483.5 -414.1,482.7 -414.8,478.5 -414.9,478.2 "/>
<polygon class="st0" points="-388.9,484.9 -389.6,489 -389.7,489 -394,489.8 -389.6,490.6 -388.8,495.1 -388,490.6 -388,490.6 
	-383.6,489.8 -388,489 -388.8,484.8 -388.8,484.5 "/>
<polygon class="st0" points="-416.4,513.6 -416.8,515.7 -416.8,515.7 -419.1,516.1 -416.8,516.6 -416.4,518.9 -416,516.6 
	-416,516.6 -413.7,516.1 -416,515.7 -416.4,513.6 -416.4,513.4 "/>
<polygon class="st0" points="-397,507.9 -397.3,509.3 -397.3,509.3 -398.9,509.6 -397.3,509.9 -397,511.5 -396.7,509.9 
	-396.7,509.9 -395.1,509.6 -396.7,509.3 -397,507.8 -397,507.7 "/>
<polygon class="st0" points="-377.7,483.6 -378,485.1 -378,485.1 -379.5,485.4 -378,485.7 -377.7,487.3 -377.4,485.7 -377.4,485.7 
	-375.8,485.4 -377.4,485.1 -377.7,483.6 -377.7,483.5 "/>
<polygon class="st0" points="-378.7,528.1 -379.2,530.9 -379.3,530.9 -382.2,531.5 -379.2,532.1 -378.7,535.1 -378.1,532.1 
	-378.1,532 -375.1,531.5 -378.1,530.9 -378.7,528.1 -378.7,527.9 "/>
<polygon class="st0" points="-418.4,469 -418.6,470.5 -418.6,470.5 -420.2,470.8 -418.6,471.1 -418.3,472.7 -418,471.1 -418,471.1 
	-416.5,470.8 -418,470.5 -418.3,469 -418.3,468.9 "/>
<polygon class="st0" points="-417.3,531.8 -417.6,533.3 -417.6,533.3 -419.2,533.6 -417.6,533.9 -417.3,535.5 -417,533.9 
	-417,533.9 -415.4,533.6 -417,533.3 -417.3,531.8 -417.3,531.7 "/>
<polygon class="st0" points="-404.4,496.7 -405.8,504.3 -405.9,504.3 -414,505.9 -405.8,507.4 -404.3,515.8 -402.8,507.4 
	-402.7,507.4 -394.5,505.9 -402.8,504.3 -404.2,496.4 -404.3,495.9 "/>
<polygon class="st0" points="-369.4,466.3 -370.6,472.9 -370.7,472.9 -377.7,474.2 -370.6,475.6 -369.3,482.8 -368,475.6 
	-367.9,475.5 -360.9,474.2 -368,472.9 -369.2,466.1 -369.3,465.7 "/>
<polygon class="st0" points="-429.2,525 -429.9,529.1 -430,529.1 -434.3,529.9 -429.9,530.7 -429.1,535.2 -428.3,530.7 
	-428.3,530.7 -423.9,529.9 -428.3,529.1 -429.1,524.9 -429.1,524.6 "/>
<polygon class="st0" points="-383.7,508.4 -384.5,512.5 -384.5,512.5 -388.8,513.3 -384.5,514.1 -383.7,518.6 -382.9,514.1 
	-382.8,514.1 -378.5,513.3 -382.9,512.5 -383.6,508.3 -383.7,508 "/>
<polygon class="st0" points="-369.4,513.7 -370.1,517.8 -370.1,517.8 -374.5,518.6 -370.1,519.4 -369.3,523.9 -368.5,519.4 
	-368.5,519.4 -364.1,518.6 -368.5,517.8 -369.2,513.6 -369.3,513.3 "/>
<polygon class="st0" points="-403.5,526.5 -404.1,529.3 -404.1,529.3 -407.1,529.9 -404.1,530.5 -403.5,533.6 -402.9,530.5 
	-402.9,530.5 -399.9,529.9 -402.9,529.3 -403.5,526.4 -403.5,526.2 "/>
<polygon class="st0" points="-392.5,474.2 -393,477.1 -393.1,477.1 -396.1,477.7 -393,478.2 -392.5,481.4 -391.9,478.2 
	-391.9,478.2 -388.8,477.7 -391.9,477.1 -392.4,474.1 -392.5,473.9 "/>
<polygon class="st0" points="-369.3,492 -369.7,494.1 -369.7,494.1 -372.1,494.6 -369.7,495 -369.3,497.4 -368.9,495 -368.8,495 
	-366.5,494.6 -368.9,494.1 -369.3,491.9 -369.3,491.7 "/>
</svg>
